# xmcd
#
# Track frame offsets:
#	150
#	13748
#	23419
#	34142
#	44492
#	58927
#	74667
#	87552
#	99417
#	113390
#	124649
#	136746
#	147814
#	155812
#	165874
#	178680
#	192014
#	206581
#	221102
#	233503
#	244445
#	258333
#	274877
#	294826
#	308138
#	323658
#	337142
#
# Disc length: 4771 seconds
#
# Revision: 0
# Processed by: cddbd v1.5.2PL0 Copyright (c) Steve Scherf et al.
# Submitted via: audiograbber 1.83.01
#
DISCID=8712a11b
DTITLE=Diverse - Country Western 1955 - 1980 CD-10
DYEAR=1900
DGENRE=Country
TTITLE0=Patsy Cline - She´s Got you
TTITLE1=Ray Charles - Busted
TTITLE2=Sir Douglass Quintet - She´s About A Mover
TTITLE3=Brooke Benton - Endlessly
TTITLE4=Robert Palmer - bad Case Of Loving You
TTITLE5=Kenny Rogers - The Gambler
TTITLE6=Anita Bryant - Paper Roses
TTITLE7=Nancy Wilson - How Glad I Am
TTITLE8=Elvis Presley and Jerry Lee Lewis - Cold Cold Heart
TTITLE9=Patsy Cline - Half As Much
TTITLE10=Don Rondo - White Silver Sand
TTITLE11=Dotie Stevens - Pink Shoe Laces
TTITLE12=Marty Robbins - Fastest Gun
TTITLE13=Johnny and the Hurricanes - Beatnik Fly
TTITLE14=Lolita - See Mann
TTITLE15=King Curtis - Mepmis Soul Stew
TTITLE16=Lorne Greene - Ringo
TTITLE17=Jackie Wilson - Higher And Higher
TTITLE18=The Monkees - Daydream Believer
TTITLE19=Bookert - Soul Limbo
TTITLE20=Tom Jones - Green Green Grass Of Home
TTITLE21=Johnny Cash - A Boy Named Sue
TTITLE22=Steppen Wolf - Magic Carpet Ride
TTITLE23=The Spenceer Davis Group - Gimmegood Lovin´
TTITLE24=Neil Diamond - Beautiful Noise
TTITLE25=Daniel Boone - Beautiful Sunday
TTITLE26=Bookert - Hip Hug Her
EXTD=
EXTT0=
EXTT1=
EXTT2=
EXTT3=
EXTT4=
EXTT5=
EXTT6=
EXTT7=
EXTT8=
EXTT9=
EXTT10=
EXTT11=
EXTT12=
EXTT13=
EXTT14=
EXTT15=
EXTT16=
EXTT17=
EXTT18=
EXTT19=
EXTT20=
EXTT21=
EXTT22=
EXTT23=
EXTT24=
EXTT25=
EXTT26=
PLAYORDER=
